<svg width="26" height="23" viewBox="0 0 26 23" fill="none" xmlns="http://www.w3.org/2000/svg">
<path d="M1.41667 18.1447V20.706C1.41667 20.9232 1.50733 21.123 1.68867 21.3053C1.87 21.4875 2.06975 21.5782 2.28792 21.5773H23.2121C23.4293 21.5773 23.6291 21.4866 23.8113 21.3053C23.9936 21.1239 24.0843 20.9242 24.0833 20.706V18.1447H1.41667ZM7.08333 4.57725V2.28792C7.08333 1.63625 7.30197 1.09225 7.73925 0.655916C8.17653 0.219583 8.721 0.000944445 9.37267 0H16.1287C16.7804 0 17.3249 0.218639 17.7622 0.655916C18.1994 1.09319 18.4176 1.63719 18.4167 2.28792V4.57725H23.2121C23.8638 4.57725 24.4078 4.79589 24.8441 5.23317C25.2804 5.67044 25.4991 6.21492 25.5 6.86658V20.706C25.5 21.3577 25.2814 21.9021 24.8441 22.3394C24.4068 22.7767 23.8628 22.9949 23.2121 22.9939H2.28792C1.63625 22.9939 1.09225 22.7758 0.655917 22.3394C0.219583 21.9031 0.000944444 21.3581 0 20.7046V6.86658C0 6.21397 0.218639 5.6695 0.655917 5.23317C1.09319 4.79683 1.63719 4.57819 2.28792 4.57725H7.08333ZM1.41667 15.0932H24.0833V6.86517C24.0833 6.64794 23.9927 6.4482 23.8113 6.26592C23.63 6.08364 23.4303 5.99297 23.2121 5.99392H18.4167V7.57492C18.4167 7.77608 18.3491 7.94419 18.2141 8.07925C18.079 8.21525 17.9104 8.28325 17.7083 8.28325C17.5062 8.28325 17.3376 8.21525 17.2026 8.07925C17.0675 7.94325 17 7.77514 17 7.57492V5.99392H8.5V7.57492C8.5 7.77608 8.43247 7.94419 8.29742 8.07925C8.16236 8.21525 7.99378 8.28325 7.79167 8.28325C7.58956 8.28325 7.42097 8.21525 7.28592 8.07925C7.15086 7.94325 7.08333 7.77514 7.08333 7.57492V5.99392H2.28933C2.07117 5.99392 1.87094 6.08458 1.68867 6.26592C1.50639 6.44725 1.41572 6.64747 1.41667 6.86658V15.0932ZM8.5 4.57725H17V2.28792C17 2.07069 16.9093 1.87094 16.728 1.68867C16.5467 1.50639 16.3469 1.41572 16.1287 1.41667H9.37125C9.15403 1.41667 8.95428 1.50733 8.772 1.68867C8.58972 1.87 8.49905 2.06975 8.5 2.28792V4.57725ZM1.41667 20.706V5.99392H2.28933C2.07117 5.99392 1.87094 6.08458 1.68867 6.26592C1.50639 6.44725 1.41572 6.64747 1.41667 6.86658V20.706ZM1.41667 20.706C1.41667 20.9232 1.50733 21.123 1.68867 21.3053C1.87 21.4875 2.06975 21.5782 2.28792 21.5773H1.41667V20.706Z" fill="black"/>
</svg>
